<svg xmlns="http://www.w3.org/2000/svg" width="1344" height="1469" viewBox="0 0 1344 1469">
    <path fill="#E4FDF4" fill-rule="evenodd" d="M162.532 970.495c-7.017 6.91-13.778 14.11-21.095 20.69-45.037 40.492-90.508 80.51-135.192 121.389-21.984 20.112-42.09 42.27-63.94 62.536-34.071 31.607-69.367 61.903-103.204 93.75-15.171 14.28-28.242 30.83-41.877 46.683-3.144 3.656-5.118 8.519-6.867 13.12-2.32 6.101-.66 9.172 7.436 5.735.04 3.852.04 7.209.12 10.568.328 13.952 8.273 22.71 20.116 28.28 10.787 5.072 20.475 1.016 28.002-6.544 12.937-12.992 25.3-26.613 37.195-40.571 4.831-5.668 7.225-13.365 11.778-19.336 6.114-8.015 13.341-15.167 19.884-22.867 2.558-3.014 4.55-6.51 6.79-9.794 2.277-3.337 4.089-7.137 6.89-9.954 12.44-12.527 25.13-24.807 37.79-37.113 23.136-22.487 46.379-44.866 69.445-67.427 7.266-7.11 13.693-15.113 21.23-21.901 11.039-9.946 22.872-19 34.104-28.731 15.753-13.654 30.969-27.935 46.951-41.31 25.112-21.02 50.598-41.594 76.113-62.127 3.923-3.159 8.84-5.078 13.3-7.568l2.596 2.132c-6.192 10.026-11.542 20.72-18.805 29.902-7.869 9.941-15.748 19.47-18.858 32.125-.888 3.616-2.535 7.168-4.439 10.393-5.619 9.522-11.989 18.67-12.781 30.232-.077 1.133-.428 2.41-1.078 3.307-12.656 17.541-13.33 38.592-17.449 58.665-1.461 7.125-4.383 13.952-5.815 21.08-1.338 6.686-1.784 13.573-2.274 20.396-.944 13.12-1.806 26.256-2.363 39.396-.236 5.578-.146 11.278.722 16.773 2.883 18.304 5.878 36.6 9.542 54.753.969 4.806 3.96 9.492 6.96 13.543 7.994 10.795 11.672 25.088 25.227 31.468 1.507.708 2.746 2.19 3.846 3.53 17.014 20.696 39.565 28.904 65.588 32.721 17.64 2.59 34.487 10.576 51.694 16.121 12.958 4.176 25.926 8.32 38.9 12.45 3.603 1.147 7.24 2.173 10.863 3.26 8.061 2.419 16.051 5.103 24.198 7.202 16.314 4.208 32.544 9.037 49.108 11.88 22.673 3.898 45.585 6.588 68.477 9.015 12.549 1.327 25.32.53 37.893 1.728 5.894.558 11.49 3.815 17.344 5.402 5.485 1.485 11.163 3.513 16.698 3.336 27.905-.903 55.785-2.465 83.677-3.767 17.958-.836 35.91-1.897 53.882-2.345 12.392-.308 24.848 1.024 37.198.288 27.527-1.627 55.908.157 81.962-9.867 26.315-10.124 54.218-10.943 80.909-18.07 4.185-1.119 8.792-2.09 12.165-4.553 10.122-7.393 10.786-14.78 2.001-23.695-3.77-3.827-8.959-6.293-13.623-9.19-8.575-5.327-17.14-10.69-25.902-15.689-4.994-2.846-10.536-4.722-15.549-7.542-10.304-5.797-20.416-11.944-30.61-17.934-5.974-3.51-11.961-6.994-17.933-10.51-9.194-5.402-18.371-10.834-27.57-16.232-3.76-2.207-7.732-4.104-11.298-6.583-15.753-10.972-31.314-22.22-47.118-33.116-5.207-3.588-11.008-6.303-16.399-9.65-5.838-3.623-11.545-7.462-17.25-11.308-15.353-10.361-26.425-25.605-42.698-35.384-13.24-7.951-23.81-20.328-35.643-30.654-4.998-4.36-10.195-8.498-15.317-12.722-4.688-3.864-10.252-7.024-13.94-11.677-15.758-19.888-31.256-40.004-46.223-60.492-5.584-7.639-9.682-16.415-14.054-24.878-3.613-6.995-1.169-23.837 3.741-29.132 6.007-6.48 17.736-8.048 27.759-4.817 9.002 2.9 15.308 8.896 22.064 15.028 11.622 10.55 24.636 19.576 36.212 30.168 13.214 12.097 25.446 25.253 38.2 37.856 4.556 4.506 9.375 8.75 14.082 13.103 15.818 14.614 31.759 29.097 47.42 43.875 17.357 16.373 34.47 33.01 51.67 49.551 1.24 1.194 2.329 2.54 3.51 3.797 2.353 2.502 4.384 6.655 7.134 7.21 17.39 3.502 30.103 15.41 44.655 23.94 9.022 5.291 17.295 11.876 26.39 17.026 16.99 9.614 34.718 17.414 54.694 18.339 3.798.175 7.768-.024 11.343 1.022 19.042 5.588 36.403-2.48 54.442-5.87 25.116-4.72 43.71-20.886 63.422-34.899 20.665-14.698 40.728-30.299 60.438-46.26 9.226-7.475 16.617-17.177 25.557-25.054 8.72-7.69 18.28-14.435 27.613-21.4 4.981-3.712 8.69-7.52 6.984-14.603-.512-2.124 1.065-5.007 2.248-7.243 7.398-13.973 3.902-28.798-10.557-36.393-9.264-4.863-19.778-8.32-30.114-9.911-12.882-1.988-26.173-1.275-39.27-2.041-2.796-.162-5.486-1.767-8.277-2.53-6.17-1.684-12.303-4.166-18.58-4.633-7.081-.53-13.84-.302-19.405-5.88-1.28-1.283-4.465-.445-6.6-1.125-6.861-2.197-15.185-2.927-20.137-7.358-10.687-9.572-22.923-10.253-35.827-10.74-3.517-.131-7.601-.97-10.355-2.966-13.285-9.64-27.102-17.25-43.154-22.25-16.595-5.166-31.484-15.574-47.766-22.066-15.693-6.26-30.19-14.424-45.061-22.177-10.006-5.217-20.065-9.454-29.288-16.553-10.012-7.707-22.845-11.625-33.564-18.561-22.176-14.347-40.363-33.267-57.476-53.22-.695-.806-.972-1.977-.906-5.812 1.259.778 2.445 1.728 3.786 2.309 33.168 14.366 66.404 28.578 99.515 43.08 15.752 6.899 31.138 14.651 46.962 21.38 6.892 2.927 14.556 3.982 21.713 6.361 20.832 6.925 41.425 14.625 62.43 20.978 14.688 4.445 29.896 7.187 44.877 10.67a9750.395 9750.395 0 0 0 37.227 8.588c2.272.52 4.573 1.01 6.889 1.223 22.574 2.097 45.117 5.161 67.74 5.938 31.007 1.066 62.263 2.5 93.057-.23 24.258-2.151 41.658-17.509 51.156-41.23 10.487-26.187 21.603-52.178 33.819-77.596 6.669-13.884 7.945-28.747 12.05-43.057 3.582-12.486 7.87-24.776 11.926-37.128 5.8-17.654 4.658-35.075-2.981-51.745-4.995-10.894-14.893-14.234-26.745-12.604-11.176 1.534-22.736.515-33.805 2.46-10.423 1.829-20.903 5.023-30.507 9.457-17.426 8.046-35.071 12.628-54.499 12.991-39.975.753-79.907 3.635-119.883 4.65-51.62 1.314-101.998-6.165-150.751-23.745-6.804-2.45-14.144-4.474-21.294-4.68-12.779-.373-24.277-4.384-34.783-10.754-22.182-13.448-44.205-27.203-65.701-41.708-25.594-17.268-14.113-47.945 6.14-58.94 5.648-3.065 14.68-2.966 21.114-.962 26.21 8.156 51.985 17.703 77.98 26.56 13.534 4.611 27.157 8.968 40.802 13.231 13.891 4.343 27.75 8.855 41.828 12.503 12.967 3.361 26.701 4.28 39.232 8.713 32.963 11.663 67.142 12.026 101.304 12.949 23.376.63 46.8 1.35 70.146.496 19.436-.709 38.792-3.645 58.183-5.61.866-.089 1.769-.576 2.579-.43 17.76 3.164 34.335-4.015 51.355-6.51 17.173-2.52 39.261-13.762 39.628-36.54.08-4.864 3.654-9.684 5.661-14.501 6.518-15.651 14.039-30.975 19.195-47.057 3.01-9.374 2.223-19.96 3.179-30 .421-4.444.079-9.193 1.562-13.263 5.144-14.09 5.867-27.994 1.82-42.564-1.73-6.236-1.368-13.213-1.08-19.812.635-14.522-8.3-19.56-21.765-15.361-15.774 4.915-30.495 14.337-48.025 13.158-2.791-.19-6.192.224-8.43 1.694-13.549 8.9-29.592 7.772-44.344 11.707-14.1 3.76-27.89 8.716-41.752 13.334-14.18 4.726-28.544 4.866-43.147 2.621-3.285-.504-6.895-.603-10.079.211-10.039 2.566-19.798 6.7-29.962 8.198-7.836 1.158-16.117-.938-24.213-1.245-18.96-.713-37.96-.699-56.868-2.038-8.829-.623-17.487-3.687-26.216-5.678-10.517-2.398-21.16-4.384-31.46-7.492-3.535-1.07-8.63-4.965-8.663-7.624-.049-3.464 3.598-9.143 6.773-10.082 9.872-2.918 20.21-4.565 30.477-5.754 22.565-2.615 45.16-5.14 67.809-6.799 35.927-2.626 71.904-4.64 107.875-6.656 14.785-.829 29.708-.077 44.393-1.67 26.143-2.834 51.454-9 72.948-25.45 18.68-14.297 23.648-34.259 23.36-56.588-.087-6.811.936-13.857 2.78-20.417 2.58-9.202 3.756-17.509.16-27.173-4.458-11.987-5.924-24.897-2.486-37.932 1.214-4.615 1.906-10.219.427-14.545-6.919-20.256-14.684-40.219-22.128-60.29-.501-1.347-.97-2.72-1.279-4.116-3.06-13.787-5.32-27.812-9.403-41.288-2.433-8.021-9.554-14.792-11.248-22.823-2.122-10.045-8.058-16.797-14.405-23.405-5.916-6.159-13.09-11.11-19.718-16.584-.45-.37-1.157-.57-1.4-1.027-11.097-21.185-35.149-23.496-52.397-35.726-3.03-2.146-7.767-2.189-11.775-2.591-14.455-1.457-27.87-4.937-39.778-14.209-4.902-3.813-12.013-5.193-18.354-6.67-13.57-3.163-27.153-4.346-40.544-10.443-15.14-6.89-32.854-8.236-49.53-11.585-6.157-1.236-12.723-.584-18.787-2.087-12.906-3.196-25.613-7.22-38.387-10.954-3.616-1.057-7.152-3.117-10.785-3.27A1501.682 1501.682 0 0 0 888.6 54.61c-17.768-.145-36.081-2.51-53.159.977-17.895 3.654-34.836 11.994-48.37 26.308-15.788 16.693-20.865 38.745-31.68 57.869-9.082 16.065-14.814 34.03-21.906 51.204-.985 2.385-2.23 5.274-1.714 7.561 3.073 13.59-3.1 24.113-9.836 35.021-3.371 5.462-4.794 12.37-6.095 18.823-4.934 24.47-9.575 48.998-14.095 73.546-2.73 14.84-5.23 29.73-7.449 44.654-1.386 9.314-1.77 19.107-10.641 24.785-2.989 1.916-7.864 3.021-11.123 2.023-20.36-6.23-36.663-29.66-30.744-51.25 3.944-14.405.81-28.74-1.982-43.038-.987-5.057-.867-10.474-.401-15.648 2.436-26.991 2.569-54.554 8.643-80.726 4.192-18.066 10.72-35.854 15.042-54.218 3.238-13.749 10.185-26.614 15.334-39.933.822-2.13.896-4.563 1.244-6.864 2.399-15.897.207-31.89 9.498-47.456 8.756-14.677-1.72-33.875-18.692-39.856-8.998-3.169-17.833-6.199-28.385-6.124-13.132.099-26.156-7.333-39.51-8.653-12.381-1.225-25.26-5.656-37.835.539-2.914 1.436-7.474 2.808-9.842 1.538-13.308-7.12-23.516 1.881-34.362 6.13-13.151 5.155-25.83 11.533-38.624 17.572-2.555 1.203-5.276 2.835-6.941 5.017-8.793 11.534-17.145 23.403-25.929 34.947-3.804 5-9.398 8.905-12.222 14.33-6.544 12.558-13.05 25.365-17.412 38.767-4.973 15.278-9.006 31.151-10.945 47.07-3.615 29.617-6.697 59.426-7.384 89.214-.304 13.222 5.897 26.553 8.867 39.894 2.143 9.632 8.335 18.636 3.762 29.427-1.147 2.705.638 6.844 1.54 10.203 3.907 14.59 8.308 29.056 11.92 43.72 4.28 17.361 7.937 34.872 11.84 52.33.317 1.417.344 2.903.681 4.317 4.629 19.412 9.28 38.823 13.941 58.23 4.018 16.737 8.024 33.478 12.098 50.2 2.33 9.557-1.828 17.55-11.914 22.624-7.808 3.929-14.993 2.784-20.122-6.067-12.17-21.014-27.856-40.353-32.32-65.315-.775-4.317-4.669-7.985-6.378-12.247-4.096-10.222-7.753-20.62-11.583-30.946-5.6-15.12-11.455-30.155-16.698-45.395-3-8.72-5.12-17.752-7.433-26.695-4.425-17.097-8.573-34.27-13.108-51.339-2.307-8.691-5.395-17.177-7.77-25.852-3.357-12.265-7.002-24.502-9.345-36.97-1.857-9.872-.123-20.689-3.268-29.975-3.95-11.66-6.993-22.886-6.5-35.285.174-4.347-2.814-8.793-4.213-13.238-4.263-13.531-8.434-27.084-12.684-40.617-1.65-5.252-3.687-10.396-5.09-15.709-4.547-17.15-8.837-34.364-13.305-51.535-3.93-15.108-25.032-25.706-39.26-20.156-20.027 7.81-38.345 18.603-54.742 32.298-11.81 9.863-25.884 19.27-32.806 32.174-9.534 17.769-23.947 34.183-24.461 56.163-.074 3.148-.813 6.388-1.82 9.393-8.747 26.205-10.379 53.112-5.039 79.899 13.202 66.226 27.42 132.227 54.404 194.663 8.207 18.991 14.718 38.722 23.021 57.665 9.46 21.582 20.114 42.638 30.118 63.984 2.328 4.973 4.64 10.055 6.063 15.328 2.779 10.286-.657 17.912-9.55 22.97-7.758 4.414-18.217 3.32-25.134-5.76-9.451-12.406-18.596-25.617-24.772-39.826-17.97-41.347-34.317-83.394-51.48-125.096-4.473-10.874-7.708-21.704-10.197-33.422-3.885-18.306-3.905-37.315-10.445-55.293-6.457-17.748-10.372-36.457-14.893-54.867-4.244-17.28-7.792-34.732-11.712-52.096-2.091-9.282-4.378-18.517-6.459-27.798-.764-3.408-2.312-7.155-1.578-10.298 3.537-15.169-7.426-23.216-15.69-32.179-6.143-6.66-25.91-3.044-30.406 5.26-5.12 9.46-9.6 19.301-13.814 29.208-5.605 13.18-10.57 26.625-16.019 39.87-8.686 21.118-15.836 42.487-20.03 65.187-3.614 19.587-12.035 38.239-17.359 57.57-4.482 16.278-7.47 32.964-11.316 49.427-1.106 4.744-2.778 9.372-4.384 13.99-1.624 4.656-3.692 9.162-5.202 13.85-5.423 16.847-11.345 33.568-15.844 50.662-5.02 19.082-9.786 38.355-12.639 57.843-2.736 18.698-1.52 37.996-4.502 56.635-4.068 25.457-10.594 50.517-15.787 75.804-1.217 5.934-1.531 12.082-1.905 18.152-1.903 30.896-1.303 62.174-6.106 92.605-6.215 39.375-2.5 76.594 15.276 111.719 15.82 31.257 43.093 47.065 77.796 51.006 31.563 3.58 63.054 2.829 94.594.365 1.746-.14 3.584-.627 5.232-.27 27.611 5.983 53.18-3.028 78.967-10.562 2.244-.654 4.676-.686 7.016-1.007.468.978.931 1.957 1.395 2.935"/>
</svg>
