<svg xmlns="http://www.w3.org/2000/svg" width="1100" height="882" viewBox="0 0 1100 882">
    <path fill="#E4FDF4" fill-rule="evenodd" d="M93.185 504.505C92.833 493.08 29.8 478.2 24.49 417.16 19.137 356.103 185.28 342.6 185.28 342.6s-71.02-31.303-48.893-112.23c28.009-102.368 249.069-7.055 266.551-22.507 17.472-15.405-57.628-105.959.287-140.952 102.961-62.247 195.946 46.448 221.161 64.155 25.291 17.785 105.652 43.38 102.547 32.644-3.136-10.797-91.438-42.953-77.183-129.06 12.767-76.734 174.56-3.315 222.148 8.947 47.587 12.262 115.763 61.351 119.649 47.85 3.832-13.47-33.424-24.513-29.211-50.206 11.087-67.53 119.848 1.153 132.179-20.632 12.344-21.678 63.746-18.723 69.851-6.23 2.77 5.697 1.327 17.798-1.049 29.268-2.894 13.801-2.362 28.003-2.362 28.003s53.804-22.02 57.241-27.793c3.421-5.729.993-19.392 6.126-21.706 5.117-2.269 21.256 11.693 24.088 15.352 2.848 3.613-13.583 14.914-13.583 14.914l-53.657 26.743s28.526-2.126 35.588 13.216c7.046 15.388-20.57 69.069-39.611 80.507-9.52 5.644-68.988 1.059-63.693 15.427 13.303 36.023 13.332 117.507-21.679 131.218-34.949 13.68-50.576-44.156-73.187-43.567-22.566.605-30.363 1.781-54.936 45.38-24.634 43.628-16.883 81.013-16.883 81.013.044.016 74.648 209.544-43.328 262.497-95.6 42.886-115.393-194.089-135.124-197.002-9.03-1.317-78.625 83.464-125.26 192.088-58.104 135.383-156.922 248.271-211.438 216.037-100.682-59.514-25.381-178.808-52.668-177.203-27.304 1.65-73.347 185.589-179.202 141.075-93.283-46.414-12.046-119.165-46.864-143.714-28.824-14.305-60.345 34.336-93.91 3.798C-91.542 562.864 93.536 515.927 93.185 504.5"/>
</svg>
