<svg class="nc-icon glyph" xmlns="http://www.w3.org/2000/svg" xmlns:xlink="http://www.w3.org/1999/xlink" x="0px" y="0px" width="64px" height="64px" viewBox="0 0 64 64"><g>
<path data-color="color-2" fill="#ffffff" d="M48.7,47.3c-0.4-0.4-1-0.4-1.4,0s-0.4,1,0,1.4l12,12c0.2,0.2,0.5,0.3,0.7,0.3
	s0.5-0.1,0.7-0.3c0.4-0.4,0.4-1,0-1.4L48.7,47.3z"></path>
<path fill="#ffffff" d="M26,1C12.2,1,1,12.2,1,26s11.2,25,25,25s25-11.2,25-25S39.8,1,26,1z M22.2,11.5C17,12.8,12.8,17,11.5,22.2
	c-0.1,0.5-0.5,0.8-1,0.8c-0.1,0-0.2,0-0.2,0c-0.5-0.1-0.9-0.7-0.7-1.2c1.5-6,6.2-10.7,12.2-12.2c0.5-0.1,1.1,0.2,1.2,0.7
	C23.1,10.8,22.8,11.3,22.2,11.5z"></path>
</g></svg>